<svg id="visual" viewBox="0 0 900 100" width="900" height="100" xmlns="http://www.w3.org/2000/svg" xmlns:xlink="http://www.w3.org/1999/xlink" version="1.1"><path d="M0 76L129 62L257 68L386 80L514 58L643 51L771 75L900 71L900 0L771 0L643 0L514 0L386 0L257 0L129 0L0 0Z" fill="#191919"></path><path d="M0 48L129 41L257 66L386 53L514 64L643 65L771 49L900 57L900 0L771 0L643 0L514 0L386 0L257 0L129 0L0 0Z" fill="#351c15"></path><path d="M0 49L129 28L257 32L386 29L514 43L643 52L771 38L900 52L900 0L771 0L643 0L514 0L386 0L257 0L129 0L0 0Z" fill="#501d10"></path><path d="M0 29L129 18L257 23L386 35L514 18L643 20L771 37L900 28L900 0L771 0L643 0L514 0L386 0L257 0L129 0L0 0Z" fill="#6b1b09"></path><path d="M0 18L129 17L257 23L386 20L514 12L643 7L771 10L900 17L900 0L771 0L643 0L514 0L386 0L257 0L129 0L0 0Z" fill="#871400"></path></svg>