<svg id="visual" viewBox="0 0 900 100" width="900" height="100" xmlns="http://www.w3.org/2000/svg" xmlns:xlink="http://www.w3.org/1999/xlink" version="1.1"><path d="M0 57L21.5 59.7C43 62.3 86 67.7 128.8 70.5C171.7 73.3 214.3 73.7 257.2 70.3C300 67 343 60 385.8 60.2C428.7 60.3 471.3 67.7 514.2 71.5C557 75.3 600 75.7 642.8 74.3C685.7 73 728.3 70 771.2 70.7C814 71.3 857 75.7 878.5 77.8L900 80L900 0L878.5 0C857 0 814 0 771.2 0C728.3 0 685.7 0 642.8 0C600 0 557 0 514.2 0C471.3 0 428.7 0 385.8 0C343 0 300 0 257.2 0C214.3 0 171.7 0 128.8 0C86 0 43 0 21.5 0L0 0Z" fill="#191919"></path><path d="M0 39L21.5 40.7C43 42.3 86 45.7 128.8 47.8C171.7 50 214.3 51 257.2 52.2C300 53.3 343 54.7 385.8 53.3C428.7 52 471.3 48 514.2 45.8C557 43.7 600 43.3 642.8 43.2C685.7 43 728.3 43 771.2 45.3C814 47.7 857 52.3 878.5 54.7L900 57L900 0L878.5 0C857 0 814 0 771.2 0C728.3 0 685.7 0 642.8 0C600 0 557 0 514.2 0C471.3 0 428.7 0 385.8 0C343 0 300 0 257.2 0C214.3 0 171.7 0 128.8 0C86 0 43 0 21.5 0L0 0Z" fill="#343434"></path><path d="M0 35L21.5 34C43 33 86 31 128.8 32.3C171.7 33.7 214.3 38.3 257.2 39.8C300 41.3 343 39.7 385.8 37.5C428.7 35.3 471.3 32.7 514.2 33.7C557 34.7 600 39.3 642.8 40C685.7 40.7 728.3 37.3 771.2 38.2C814 39 857 44 878.5 46.5L900 49L900 0L878.5 0C857 0 814 0 771.2 0C728.3 0 685.7 0 642.8 0C600 0 557 0 514.2 0C471.3 0 428.7 0 385.8 0C343 0 300 0 257.2 0C214.3 0 171.7 0 128.8 0C86 0 43 0 21.5 0L0 0Z" fill="#515151"></path><path d="M0 29L21.5 30.3C43 31.7 86 34.3 128.8 34C171.7 33.7 214.3 30.3 257.2 28.5C300 26.7 343 26.3 385.8 28C428.7 29.7 471.3 33.3 514.2 32.2C557 31 600 25 642.8 24.7C685.7 24.3 728.3 29.7 771.2 30.3C814 31 857 27 878.5 25L900 23L900 0L878.5 0C857 0 814 0 771.2 0C728.3 0 685.7 0 642.8 0C600 0 557 0 514.2 0C471.3 0 428.7 0 385.8 0C343 0 300 0 257.2 0C214.3 0 171.7 0 128.8 0C86 0 43 0 21.5 0L0 0Z" fill="#707070"></path><path d="M0 7L21.5 7.8C43 8.7 86 10.3 128.8 11.8C171.7 13.3 214.3 14.7 257.2 15C300 15.3 343 14.7 385.8 15.2C428.7 15.7 471.3 17.3 514.2 17C557 16.7 600 14.3 642.8 14.2C685.7 14 728.3 16 771.2 17C814 18 857 18 878.5 18L900 18L900 0L878.5 0C857 0 814 0 771.2 0C728.3 0 685.7 0 642.8 0C600 0 557 0 514.2 0C471.3 0 428.7 0 385.8 0C343 0 300 0 257.2 0C214.3 0 171.7 0 128.8 0C86 0 43 0 21.5 0L0 0Z" fill="#919191"></path></svg>