<svg id="visual" viewBox="0 0 900 100" width="900" height="100" xmlns="http://www.w3.org/2000/svg" xmlns:xlink="http://www.w3.org/1999/xlink" version="1.1"><path d="M0 28L21.5 28.3C43 28.7 86 29.3 128.8 28.7C171.7 28 214.3 26 257.2 26.2C300 26.3 343 28.7 385.8 28.2C428.7 27.7 471.3 24.3 514.2 24.2C557 24 600 27 642.8 26.3C685.7 25.7 728.3 21.3 771.2 23.3C814 25.3 857 33.7 878.5 37.8L900 42L900 101L878.5 101C857 101 814 101 771.2 101C728.3 101 685.7 101 642.8 101C600 101 557 101 514.2 101C471.3 101 428.7 101 385.8 101C343 101 300 101 257.2 101C214.3 101 171.7 101 128.8 101C86 101 43 101 21.5 101L0 101Z" fill="#191919"></path><path d="M0 57L21.5 55.3C43 53.7 86 50.3 128.8 46C171.7 41.7 214.3 36.3 257.2 36.2C300 36 343 41 385.8 43.5C428.7 46 471.3 46 514.2 45.5C557 45 600 44 642.8 45.3C685.7 46.7 728.3 50.3 771.2 51.7C814 53 857 52 878.5 51.5L900 51L900 101L878.5 101C857 101 814 101 771.2 101C728.3 101 685.7 101 642.8 101C600 101 557 101 514.2 101C471.3 101 428.7 101 385.8 101C343 101 300 101 257.2 101C214.3 101 171.7 101 128.8 101C86 101 43 101 21.5 101L0 101Z" fill="#343434"></path><path d="M0 57L21.5 56.8C43 56.7 86 56.3 128.8 56.2C171.7 56 214.3 56 257.2 55.7C300 55.3 343 54.7 385.8 56.8C428.7 59 471.3 64 514.2 63.7C557 63.3 600 57.7 642.8 53.7C685.7 49.7 728.3 47.3 771.2 47.3C814 47.3 857 49.7 878.5 50.8L900 52L900 101L878.5 101C857 101 814 101 771.2 101C728.3 101 685.7 101 642.8 101C600 101 557 101 514.2 101C471.3 101 428.7 101 385.8 101C343 101 300 101 257.2 101C214.3 101 171.7 101 128.8 101C86 101 43 101 21.5 101L0 101Z" fill="#515151"></path><path d="M0 67L21.5 68C43 69 86 71 128.8 72C171.7 73 214.3 73 257.2 73.7C300 74.3 343 75.7 385.8 74C428.7 72.3 471.3 67.7 514.2 68C557 68.3 600 73.7 642.8 73.2C685.7 72.7 728.3 66.3 771.2 64.7C814 63 857 66 878.5 67.5L900 69L900 101L878.5 101C857 101 814 101 771.2 101C728.3 101 685.7 101 642.8 101C600 101 557 101 514.2 101C471.3 101 428.7 101 385.8 101C343 101 300 101 257.2 101C214.3 101 171.7 101 128.8 101C86 101 43 101 21.5 101L0 101Z" fill="#707070"></path><path d="M0 89L21.5 88.5C43 88 86 87 128.8 85C171.7 83 214.3 80 257.2 80.5C300 81 343 85 385.8 84.5C428.7 84 471.3 79 514.2 76.8C557 74.7 600 75.3 642.8 77C685.7 78.7 728.3 81.3 771.2 82.8C814 84.3 857 84.7 878.5 84.8L900 85L900 101L878.5 101C857 101 814 101 771.2 101C728.3 101 685.7 101 642.8 101C600 101 557 101 514.2 101C471.3 101 428.7 101 385.8 101C343 101 300 101 257.2 101C214.3 101 171.7 101 128.8 101C86 101 43 101 21.5 101L0 101Z" fill="#919191"></path></svg>