<svg id="visual" viewBox="0 0 900 100" width="900" height="100" xmlns="http://www.w3.org/2000/svg" xmlns:xlink="http://www.w3.org/1999/xlink" version="1.1"><path d="M0 22L129 36L257 30L386 18L514 40L643 47L771 23L900 27L900 101L771 101L643 101L514 101L386 101L257 101L129 101L0 101Z" fill="#191919"></path><path d="M0 50L129 57L257 32L386 45L514 34L643 33L771 49L900 41L900 101L771 101L643 101L514 101L386 101L257 101L129 101L0 101Z" fill="#351c15"></path><path d="M0 49L129 70L257 66L386 69L514 55L643 46L771 60L900 46L900 101L771 101L643 101L514 101L386 101L257 101L129 101L0 101Z" fill="#501d10"></path><path d="M0 69L129 80L257 75L386 63L514 80L643 78L771 61L900 70L900 101L771 101L643 101L514 101L386 101L257 101L129 101L0 101Z" fill="#6b1b09"></path><path d="M0 80L129 81L257 75L386 78L514 86L643 91L771 88L900 81L900 101L771 101L643 101L514 101L386 101L257 101L129 101L0 101Z" fill="#871400"></path></svg>